<svg xmlns="http://www.w3.org/2000/svg" xmlns:xlink="http://www.w3.org/1999/xlink" version="1.1" x="0px" y="0px" viewBox="0 0 100 125" style="enable-background:new 0 0 100 100;" xml:space="preserve"><path d="M70.1099854,22.6699829C70.0499878,21.4699707,70,20.3200073,69.8099976,19.2099609  C68.1500244,9.3699951,59.8099976,2.5,49.9699707,2.5C49.25,2.5,48.539978,2.5299683,47.8099976,2.6099854  C39.460022,3.4500122,32.3699951,9.5999756,30.5800171,17.5799561c-1.1700439,5.2000122-1.0400391,10.9000244,0.4099731,17.9400024  C31.6699829,38.8099976,33.2600098,40.8399658,36,41.9199829c1.4000244,0.5599976,2.4299927,1.7700195,2.9199829,2.4500122  c0.7999878,1.0999756,1.4500122,2.3800049,1.8600464,3.7000122c0.5499878,1.7399902,1.4599609,2.6900024,2.9599609,3.0700073  c1.2800293,0.3299561,2.6500244,0.6599731,3.9899902,0.7999878c3.4100342,0.3299561,6.3900146,0.0100098,9.1000366-1.0100098  c1.2000122-0.4400024,1.9099731-1.289978,2.3899536-2.8300171C60,45.5499878,61.1199951,43.0299683,64,41.9099731  c2.8099976-1.0899658,4.4500122-3.1900024,5.0100098-6.4299927c0.5999756-3.4000244,1.1699829-10.1900024,1.1900024-11.0599976  C70.1599731,23.8399658,70.1400146,23.25,70.1099854,22.6699829z M40.9299927,37.5100098h-0.0499878  c-0.5100098,0-2.9100342-0.2000122-3.960022-0.6100464C34.3499756,35.9099731,33.3099976,33.8699951,34,31.1599731  c0.75-2.9599609,3.6199951-5.2699585,6.6699829-5.3699951c0.710022-0.0200195,1.4100342,0,2.0599976,0.0599976  c3.1799927,0.2900391,4.8699951,2.3699951,4.6000366,5.7000122C47.0599976,34.9299927,44.4799805,37.3200073,40.9299927,37.5100098z   M52.9699707,47.3099976c-1.1099854,0.3699951-2.2099609,0.0999756-3-0.7300415  c-0.6499634,0.7200317-1.3299561,0.9400024-1.9099731,0.9400024c-0.4099731,0-0.7700195-0.1099854-1.0499878-0.2299805  c-1.7600098-0.7700195-2.2399902-2.1400146-2.3200073-3.1400146c-0.0300293-0.1799927,0-0.3599854,0.0499878-0.5299683  c0.1300049-0.4100342,0.2399902-0.8200073,0.3599854-1.2299805c0.4700317-1.75,1.0300293-3.7200317,2.4000244-5.3800049  c0.789978-0.9500122,1.8400269-1.4400024,2.9099731-1.3200073c0.9900513,0.1099854,1.8300171,0.7199707,2.3300171,1.6900024  c0.8900146,1.7399902,1.6699829,3.7299805,2.460022,6.2699585C55.6500244,45.1499634,54.7000122,46.7299805,52.9699707,47.3099976z   M64.1699829,36.3699951c-1.2099609,0.7799683-2.75,1.1699829-4.2999878,1.1699829  c-1.6400146,0-3.2799683-0.4299927-4.5499878-1.289978c-2.7600098-1.8500366-3.1600342-5.3300171-2.1400146-7.8200073  c0.8800049-2.1300049,2.9400024-2.4100342,4.039978-2.5700073c0.4000244-0.0599976,0.7600098-0.039978,1.0900269-0.0300293  l0.3099976,0.0100098c3.8200073-0.1199951,6.8200073,2.25,7.5200195,5.9700317  C66.5,33.6900024,65.789978,35.3099976,64.1699829,36.3699951z"/><path d="M82.871109,81.1143112c-0.8890381-1.5769043-1.7357178-1.9473267-2.3071899-2.09552  c-1.5769653-0.3915405-4.0323486,0.4656982-7.5037842,2.6246948c-0.444458,0.2752075-1.0053711,0.2858276-1.4499512,0.0106201  l-13.017704-7.8741455c-0.4127808-0.2434082-0.666748-0.6984863-0.666748-1.1853638  c0-0.4867554,0.2539673-0.9313354,0.666748-1.1853027c1.2171631-0.7302856,2.3707275-1.428772,3.4714355-2.1061401  c3.0480385-1.8521118,5.6727333-3.4502563,8.4244423-4.953064c1.2488403-0.6879845,3.2491455-0.4127769,4.3286743,0.2645874  c2.2119141,1.3864136,4.1381226,1.9473267,5.5669556,1.5875244c0.9842529-0.2329102,1.7780151-0.878479,2.423584-1.979126  c0.6984863-1.1748009,0.8890381-2.286068,0.5820923-3.2915001c-0.4550781-1.4816895-1.979126-2.8575439-4.4133301-4.0111694  c-0.5079346-0.2327881-0.772522-0.6561279-0.9418945-0.8995361c-0.1693115-0.211731-0.3386841-0.5820923-0.3598022-0.8572998  l-0.0212402-0.2434692c-0.0317383-0.2539673-0.0528564-0.4973755-0.0528564-0.7513428  c0.0740967-2.5189209-0.43396-4.3815918-1.4605713-5.387085c-0.7408447-0.7408447-1.7885742-1.0583496-3.1750488-1.0159302  c-1.3334961,0.0528564-2.2860718,0.4232788-2.9210815,1.1112061c-0.9313354,1.0266113-1.3334961,2.9421997-1.1853027,5.7150879  c0.0846558,1.5981445-1.2806396,3.4926147-2.5930176,4.3392944C62.3708,61.4396324,58.0315666,64.0430832,52.9832306,66.87957  c-1.0795288,0.6137695-3.3126221,1.4287109-4.7837524,0.6137695c-4.3498535-2.4024048-8.6573486-4.9847984-12.8272095-7.4825401  c-1.3335571-0.7937622-2.6671143-1.5980835-3.9900513-2.3812866c-0.5291748-0.3175049-0.7937622-0.9418945-0.6349487-1.5345459  c0.994812-3.8630371,1.0900879-6.053833-1.2171631-7.3026733c-1.3758545-0.7514648-3.746521-0.9419556-4.2333984-0.6244507  c-1.2699585,1.206543-2.1589966,2.973938-3.1009521,4.84729c-0.4021606,0.8149414-0.8148804,1.6192627-1.2594604,2.3918457  c-0.5608521,0.9207764-1.2064819,1.7568359-1.8309326,2.5612183c-1.0583496,1.3758545-2.0637817,2.6776733-2.3918457,4.0111694  c-0.1693115,0.772583,1.2700195,3.3337975,2.0214844,3.6089439c1.6827393,0.3386841,3.6195068-0.0316772,5.6833496-0.4233398  c0.5185547-0.0952148,1.0265503-0.2010498,1.5346069-0.2857056v-0.3175049  c0.010498-0.4974365,0.2857056-0.9525108,0.7090454-1.195919c0.4338989-0.2329102,0.9630737-0.2329102,1.3864746,0.0211182  l13.3986816,8.0328941c0.4234009,0.2434082,0.6773682,0.6984863,0.6773682,1.1853638s-0.2539673,0.9313354-0.6773682,1.1853638  l-13.2929077,7.9799194c-0.4867554,0.2963867-1.100647,0.2645874-1.5557251-0.0845947  c-2.8152466-2.1379395-5.0483398-3.0904541-6.6253052-2.8469849c-0.9631348,0.1481934-1.8098145,0.772583-2.5929565,1.8944092  c-0.7937622,1.1218872-1.0689697,2.0744019-0.878479,3.0057373c0.3070068,1.5557861,1.979126,3.2703247,5.0906982,5.2282715  c0.4021606,0.2540283,0.6456299,0.6984863,0.6456299,1.1747437c0,0.4338989-0.0211792,0.878479-0.0529785,1.322937  c-0.0528564,0.8043823-0.0952148,1.5663452,0.0635986,2.1802368c0.666687,2.6352539,2.2437134,3.9158936,4.741394,3.7994385  c1.6087036-0.0634766,3.1115723-0.7302246,3.8312378-1.6721191c0.4233398-0.5609741,0.5397339-1.1642456,0.3809814-1.8627319  c-1.3758545-5.6516113,2.0531616-7.5778198,4.8049316-9.1229858c0.444519-0.2540283,0.8995972-0.5079956,1.3440552-0.7832031  c0.9419556-0.5820923,1.8627319-1.1959229,2.7940674-1.8097534c1.7886353-1.1959839,3.6513672-2.423645,5.619873-3.4396973  c0.4973755-0.2539673,2.5505981-1.2488403,4.4556885-1.2488403c0.6455688,0,1.2699585,0.105835,1.8097534,0.3916016  c4.2122765,2.2119751,8.2974815,4.6990967,12.2557373,7.1015625c1.4075928,0.8572388,2.8151855,1.7145386,4.2227783,2.5505981  c0.4974976,0.2963867,0.7514648,0.878479,0.6455688,1.4393311c-0.5926514,3.1962891-0.3809814,5.5987549,0.5927124,6.9534302  c0.5926514,0.8255005,1.4923096,1.3123169,2.7623291,1.4923096c1.3864136,0.1904907,2.4342041-0.0317993,3.2067871-0.6773682  c1.2700195-1.0795288,1.979126-3.3761597,2.0849609-6.8475952c0.0211182-0.4973755,0.2963257-0.9524536,0.7407837-1.1853638  c2.8046875-1.4816284,4.4451294-3.0056763,4.8896484-4.5085449C83.7071686,83.2734299,83.5272369,82.2573776,82.871109,81.1143112z"/><text x="0" y="115" fill="#000000" font-size="5px" font-weight="bold" font-family="'Helvetica Neue', Helvetica, Arial-Unicode, Arial, Sans-serif">Created by zion</text><text x="0" y="120" fill="#000000" font-size="5px" font-weight="bold" font-family="'Helvetica Neue', Helvetica, Arial-Unicode, Arial, Sans-serif">from the Noun Project</text></svg>